<svg xmlns="http://www.w3.org/2000/svg" width="1600" height="800"><linearGradient id="a" x1="0" x2="1600" y1="800" y2="800" gradientUnits="userSpaceOnUse"><stop offset="0" stop-color="#fa769f"/><stop offset="1" stop-color="#a9e8fd"/></linearGradient><path fill="url(#a)" fill-rule="evenodd" d="M0 0h1600v800H0Z"/><linearGradient id="b" x1="1414" x2="733.022" y1="105" y2="1077.89" gradientUnits="userSpaceOnUse"><stop offset="0" stop-color="#1d1f23"/><stop offset="1" stop-color="#282c34"/></linearGradient><path fill="url(#b)" fill-rule="evenodd" d="M1414 137v526c0 17.661-14.34 32-32 32H218c-17.661 0-32-14.339-32-32V137c0-17.661 14.339-32 32-32h1164c17.66 0 32 14.339 32 32Z"/><linearGradient id="c" x1="1414" x2="733.022" y1="105" y2="1077.89" gradientUnits="userSpaceOnUse"><stop offset="0" stop-color="#1d1f23"/><stop offset="1" stop-color="#282c34"/></linearGradient><path fill="url(#c)" fill-rule="evenodd" d="M1414 137v526c0 17.661-14.34 32-32 32H218c-17.661 0-32-14.339-32-32V137c0-17.661 14.339-32 32-32h1164c17.66 0 32 14.339 32 32Z"/><path fill="none" stroke="#fff" stroke-linecap="round" stroke-opacity=".7" stroke-width="7.42" d="M1391 244.608v325c0 1.379-1.12 2.5-2.5 2.5s-2.5-1.121-2.5-2.5v-325a2.5 2.5 0 0 1 5 0Z"/><path fill="#ccc" fill-opacity=".75" fill-rule="evenodd" d="M1228.86 242.421h7.143v33.691h-7.143Z"/><path fill="#ccc" d="M239.926 273.333c-1.825 0-3.353-.544-4.585-1.633-1.232-1.09-2.144-2.492-2.737-4.207a16.497 16.497 0 0 1-.89-5.429c0-1.774.326-3.489.978-5.146.652-1.656 1.603-3.006 2.855-4.05 1.251-1.043 2.717-1.565 4.399-1.565 1.225 0 2.382.251 3.471.753 1.088.503 1.945 1.334 2.571 2.495v-12.365h3.382v26.217c0 .509.007 1.011.02 1.506l.039 1.487.059 1.702h-3.109l-.391-2.895c-.795 1.148-1.649 1.956-2.562 2.426-.912.469-2.079.704-3.5.704Zm.822-2.543c1.29 0 2.326-.44 3.109-1.321.782-.88 1.332-1.966 1.652-3.257.319-1.292.479-2.622.479-3.992 0-1.369-.189-2.68-.567-3.932-.378-1.252-.991-2.286-1.838-3.101-.848-.815-1.936-1.223-3.266-1.223-1.186 0-2.183.414-2.991 1.242-.808.829-1.405 1.872-1.789 3.131a12.939 12.939 0 0 0-.577 3.805c0 1.357.218 2.7.655 4.03.437 1.331 1.092 2.433 1.965 3.307.873.874 1.929 1.311 3.168 1.311Zm24.049 2.621c-1.89 0-3.565-.456-5.025-1.369-1.46-.913-2.59-2.198-3.392-3.854-.802-1.657-1.202-3.555-1.202-5.694 0-2.178.407-4.125 1.222-5.84.814-1.715 1.932-3.055 3.353-4.02a8.23 8.23 0 0 1 4.732-1.448c1.668 0 3.135.46 4.399 1.379 1.264.92 2.248 2.286 2.952 4.099.704 1.813 1.056 4.017 1.056 6.613h-14.273c0 2.308.524 4.053 1.574 5.233 1.049 1.181 2.571 1.771 4.565 1.771 1.304 0 2.51-.215 3.618-.646 1.108-.43 1.974-.893 2.6-1.389l1.642 2.583c-.495.43-1.16.844-1.994 1.242-.834.398-1.763.721-2.786.969a12.876 12.876 0 0 1-3.041.371Zm4.967-13.108c0-1.187-.232-2.237-.694-3.15-.463-.913-1.102-1.621-1.916-2.123-.815-.502-1.731-.753-2.748-.753a5.628 5.628 0 0 0-2.854.753c-.874.502-1.568 1.213-2.083 2.133-.515.919-.772 1.966-.772 3.14h11.067Zm18.497 13.108c-1.89 0-3.565-.456-5.025-1.369-1.46-.913-2.591-2.198-3.393-3.854-.801-1.657-1.202-3.555-1.202-5.694 0-2.178.407-4.125 1.222-5.84.814-1.715 1.932-3.055 3.353-4.02a8.23 8.23 0 0 1 4.732-1.448c1.668 0 3.135.46 4.399 1.379 1.265.92 2.249 2.286 2.953 4.099.704 1.813 1.055 4.017 1.055 6.613h-14.273c0 2.308.525 4.053 1.574 5.233 1.049 1.181 2.571 1.771 4.566 1.771 1.303 0 2.509-.215 3.617-.646 1.108-.43 1.975-.893 2.6-1.389l1.643 2.583c-.496.43-1.16.844-1.995 1.242-.834.398-1.763.721-2.786.969a12.874 12.874 0 0 1-3.04.371Zm4.966-13.108c0-1.187-.231-2.237-.694-3.15-.463-.913-1.102-1.621-1.916-2.123-.815-.502-1.731-.753-2.747-.753-1.03 0-1.982.251-2.855.753a5.497 5.497 0 0 0-2.082 2.133c-.515.919-.773 1.966-.773 3.14h11.067Zm9.072-3.952c0-1.422-.045-2.883-.136-4.383l-.02-.391h3.304l.157 3.561c.73-1.291 1.623-2.273 2.679-2.945 1.055-.671 2.261-1.007 3.617-1.007 1.799 0 3.294.551 4.487 1.653 1.193 1.102 2.066 2.504 2.62 4.206.554 1.703.831 3.46.831 5.273 0 1.878-.3 3.656-.899 5.332-.6 1.676-1.542 3.042-2.826 4.098-1.284 1.057-2.903 1.585-4.858 1.585-1.239 0-2.291-.235-3.158-.704-.867-.47-1.659-1.2-2.376-2.191v10.095h-3.422v-24.182Zm8.76 14.282c1.199 0 2.206-.375 3.021-1.125s1.424-1.738 1.828-2.964c.404-1.226.606-2.543.606-3.952 0-1.317-.169-2.631-.508-3.942-.339-1.311-.896-2.413-1.672-3.307-.775-.893-1.776-1.34-3.001-1.34-1.225 0-2.268.453-3.129 1.36-.86.906-1.502 2.035-1.926 3.385a13.327 13.327 0 0 0-.635 4.001c0 1.187.179 2.387.538 3.6.358 1.213.945 2.23 1.759 3.052.815.821 1.855 1.232 3.119 1.232Zm20.374-14.83h-5.612v-2.935h5.612v-3.639c0-1.8.3-3.218.899-4.255.6-1.037 1.444-1.761 2.532-2.172 1.089-.411 2.441-.616 4.058-.616 1.642 0 3.037.052 4.184.156v3.053a43.054 43.054 0 0 0-3.598-.157c-1.017 0-1.857.088-2.522.264-.665.176-1.19.528-1.574 1.057-.385.528-.577 1.301-.577 2.318v3.991h6.472v2.935h-6.472v17.295h-3.402v-17.295Zm21.664 6.065c0-2.256-.032-3.838-.097-4.744a23.27 23.27 0 0 0-.333-2.612h-3.754v-2.935h6.374l.313 3.874c.6-1.435 1.45-2.504 2.552-3.209 1.101-.704 2.245-1.056 3.431-1.056.926 0 1.9.202 2.923.606 1.024.405 1.835.894 2.435 1.468l-1.799 2.387c-.365-.392-.916-.757-1.652-1.096-.737-.339-1.555-.509-2.454-.509-1.108 0-1.995.346-2.659 1.037-.665.691-1.151 1.751-1.457 3.179-.306 1.429-.46 3.284-.46 5.567v9.273h-3.363v-11.23Zm20.648-10.291h9.366v18.626h6.413v2.895h-16.268v-2.895h6.433v-15.691h-5.944v-2.935Zm7.586-4.304c-.938 0-1.603-.196-1.994-.587-.391-.391-.587-1.057-.587-1.996 0-.939.196-1.604.587-1.995.391-.392 1.056-.587 1.994-.587.939 0 1.604.195 1.995.587.391.391.586 1.056.586 1.995 0 .939-.195 1.605-.586 1.996-.391.391-1.056.587-1.995.587Zm24.246 26.138c-1.89 0-3.565-.456-5.025-1.369-1.46-.913-2.591-2.198-3.393-3.854-.801-1.657-1.202-3.555-1.202-5.694 0-2.178.407-4.125 1.222-5.84.815-1.715 1.932-3.055 3.353-4.02a8.23 8.23 0 0 1 4.732-1.448c1.668 0 3.135.46 4.399 1.379 1.265.92 2.249 2.286 2.953 4.099.704 1.813 1.056 4.017 1.056 6.613h-14.274c0 2.308.525 4.053 1.574 5.233 1.049 1.181 2.571 1.771 4.566 1.771 1.303 0 2.509-.215 3.617-.646 1.108-.43 1.975-.893 2.6-1.389l1.643 2.583c-.496.43-1.16.844-1.995 1.242-.834.398-1.763.721-2.786.969a12.874 12.874 0 0 1-3.04.371Zm4.966-13.108c0-1.187-.231-2.237-.694-3.15-.463-.913-1.101-1.621-1.916-2.123-.815-.502-1.731-.753-2.747-.753-1.03 0-1.982.251-2.855.753s-1.567 1.213-2.082 2.133c-.515.919-.773 1.966-.773 3.14h11.067Zm17.089 13.03c-1.825 0-3.353-.544-4.585-1.633-1.232-1.09-2.144-2.492-2.737-4.207a16.498 16.498 0 0 1-.89-5.429c0-1.774.326-3.489.978-5.146.651-1.656 1.603-3.006 2.854-4.05 1.252-1.043 2.718-1.565 4.4-1.565 1.225 0 2.382.251 3.47.753 1.089.503 1.946 1.334 2.571 2.495v-12.365h3.383v26.217c0 .509.007 1.011.02 1.506l.039 1.487.058 1.702h-3.108l-.392-2.895c-.795 1.148-1.648 1.956-2.561 2.426-.912.469-2.079.704-3.5.704Zm.821-2.543c1.291 0 2.327-.44 3.109-1.321.782-.88 1.333-1.966 1.652-3.257.32-1.292.479-2.622.479-3.992 0-1.369-.189-2.68-.567-3.932-.378-1.252-.99-2.286-1.837-3.101-.848-.815-1.936-1.223-3.266-1.223-1.186 0-2.183.414-2.991 1.242-.809.829-1.405 1.872-1.789 3.131a12.939 12.939 0 0 0-.577 3.805c0 1.357.218 2.7.655 4.03.436 1.331 1.091 2.433 1.965 3.307.873.874 1.929 1.311 3.167 1.311Zm13.589-14.126c0-1.096-.078-2.791-.234-5.087h3.148l.234 2.504c.352-.965.841-1.676 1.467-2.132.626-.457 1.388-.685 2.288-.685.808 0 1.518.284 2.131.851.612.567 1.004 1.588 1.173 3.062.326-1.5.893-2.521 1.701-3.062.808-.541 1.812-.812 3.011-.812.847 0 1.636.261 2.366.783.73.521 1.317 1.281 1.76 2.279.443.998.665 2.182.665 3.551v15.182h-3.52v-14.36c0-1.631-.166-2.808-.498-3.532-.333-.724-.858-1.085-1.574-1.085-.757 0-1.382.326-1.878.978-.495.652-.743 1.734-.743 3.248v14.751h-3.519v-14.36c0-3.078-.75-4.617-2.249-4.617-.703 0-1.248.316-1.632.948-.385.633-.577 1.725-.577 3.278v14.751h-3.52v-16.434Zm25.556-5.087h9.366v18.626h6.413v2.895h-16.268v-2.895h6.433v-15.691h-5.944v-2.935Zm7.586-4.304c-.938 0-1.603-.196-1.994-.587-.391-.391-.587-1.057-.587-1.996 0-.939.196-1.604.587-1.995.391-.392 1.056-.587 1.994-.587.939 0 1.604.195 1.995.587.391.391.586 1.056.586 1.995 0 .939-.195 1.605-.586 1.996-.391.391-1.056.587-1.995.587Zm15.075 9.9c0-.9-.026-1.729-.078-2.485a108.02 108.02 0 0 0-.274-3.111h3.188l.391 3.913c.769-1.343 1.746-2.397 2.933-3.16a7.015 7.015 0 0 1 3.871-1.144c2.346 0 4.135.815 5.367 2.445 1.232 1.631 1.848 3.881 1.848 6.75v12.717h-3.422v-11.152c0-1.539-.117-2.863-.352-3.971-.234-1.109-.7-2.009-1.398-2.7-.697-.691-1.691-1.037-2.982-1.037-1.342 0-2.437.44-3.284 1.321-.848.88-1.457 2.008-1.829 3.384a16.735 16.735 0 0 0-.557 4.373v9.782h-3.422v-15.925Zm31.226 16.16c-1.825 0-3.353-.544-4.585-1.633-1.232-1.09-2.144-2.492-2.737-4.207-.594-1.715-.89-3.525-.89-5.429 0-1.774.326-3.489.978-5.146.651-1.656 1.603-3.006 2.854-4.05 1.252-1.043 2.718-1.565 4.4-1.565 1.225 0 2.382.251 3.47.753 1.089.503 1.946 1.334 2.571 2.495v-12.365h3.383v26.217c0 .509.007 1.011.02 1.506l.039 1.487.058 1.702h-3.109l-.391-2.895c-.795 1.148-1.649 1.956-2.561 2.426-.912.469-2.079.704-3.5.704Zm.821-2.543c1.291 0 2.327-.44 3.109-1.321.782-.88 1.333-1.966 1.652-3.257.32-1.292.479-2.622.479-3.992 0-1.369-.189-2.68-.567-3.932-.378-1.252-.99-2.286-1.838-3.101-.847-.815-1.935-1.223-3.265-1.223-1.186 0-2.183.414-2.991 1.242-.809.829-1.405 1.872-1.79 3.131a12.972 12.972 0 0 0-.576 3.805c0 1.357.218 2.7.655 4.03.436 1.331 1.091 2.433 1.965 3.307.873.874 1.929 1.311 3.167 1.311Zm24.852 9.626c-3.142 0-5.57-.646-7.284-1.937-1.714-1.292-2.913-3.261-3.597-5.909-.685-2.648-1.027-6.208-1.027-10.682 0-4.422.326-7.986.978-10.692.652-2.707 1.786-4.735 3.402-6.085 1.616-1.35 3.865-2.025 6.746-2.025 2.111 0 3.812.424 5.103 1.272 1.29.847 2.229 2.109 2.815 3.785.587 1.676.88 3.799.88 6.369v13.695c0 .613.065 1.445.196 2.495.13 1.05.261 1.849.391 2.396h-3.089l-.391-2.152c-.261.705-.812 1.278-1.653 1.722a5.76 5.76 0 0 1-2.727.665c-2.112 0-3.666-.962-4.664-2.886-.997-1.924-1.495-4.412-1.495-7.464 0-3.052.498-5.481 1.495-7.288.998-1.806 2.519-2.709 4.566-2.709.873 0 1.688.133 2.444.401.756.267 1.369.649 1.838 1.144v-1.076a12.18 12.18 0 0 0-1.017-4.852c-.678-1.578-2.203-2.367-4.575-2.367-1.942 0-3.477.632-4.605 1.898-1.127 1.265-1.926 3.114-2.395 5.546-.469 2.433-.704 5.534-.704 9.303 0 3.913.284 6.848.851 8.805.567 1.956 1.574 3.322 3.021 4.098 1.446.776 3.623 1.164 6.53 1.164h6.648v3.366h-8.681Zm1.544-9.705c.796 0 1.447-.221 1.956-.665a3.786 3.786 0 0 0 1.095-1.584c.221-.614.332-1.194.332-1.742v-7.61c0-1.187-.293-2.1-.88-2.74-.586-.639-1.401-.958-2.444-.958-.86 0-1.554.248-2.082.743-.528.496-.916 1.301-1.164 2.416-.247 1.116-.371 2.625-.371 4.53 0 2.021.133 3.583.401 4.686.267 1.102.658 1.865 1.173 2.289.515.424 1.176.635 1.984.635Zm19.24 10.605c-1.212 0-2.33-.137-3.353-.411-1.023-.274-1.913-.672-2.669-1.194-1.486-1.03-2.229-2.334-2.229-3.913 0-.913.228-1.793.684-2.641a9.802 9.802 0 0 1 1.701-2.289c-.651-.443-1.13-.939-1.437-1.487-.306-.548-.459-1.174-.459-1.878 0-.822.176-1.585.528-2.289.352-.705.912-1.422 1.681-2.152v-.255c-.156-.091-.355-.323-.596-.694-.241-.372-.456-.887-.645-1.546s-.284-1.425-.284-2.299c0-1.343.336-2.553 1.007-3.629.671-1.076 1.603-1.921 2.796-2.534 1.193-.613 2.532-.919 4.018-.919.821 0 1.512.117 2.073.352h7.743v2.935h-3.95c.391.469.678 1.037.86 1.702.183.665.274 1.324.274 1.976a7.785 7.785 0 0 1-.919 3.707 7.215 7.215 0 0 1-2.561 2.769c-1.095.691-2.334 1.037-3.715 1.037a7.358 7.358 0 0 1-2.034-.264 9.26 9.26 0 0 1-1.799-.734c-.547.313-.932.639-1.153.978-.222.339-.333.802-.333 1.389 0 .679.343 1.168 1.027 1.468.684.3 1.567.45 2.649.45l2.249-.039 1.74-.04c1.799 0 3.298.405 4.497 1.213a4.638 4.638 0 0 1 1.613 1.82c.359.73.538 1.559.538 2.485 0 .978-.228 1.894-.684 2.749-.457.854-1.115 1.594-1.975 2.22-.848.613-1.897 1.093-3.148 1.438a13.965 13.965 0 0 1-3.735.519Zm.157-2.935c2.033 0 3.545-.352 4.536-1.057a3.295 3.295 0 0 0 1.046-1.125c.241-.437.362-.909.362-1.418 0-.952-.349-1.653-1.046-2.103-.698-.45-1.522-.675-2.474-.675-.352 0-.691.006-1.017.019l-.938.039c-.508.04-.991.059-1.447.059-.574 0-1.251-.085-2.033-.254a3.961 3.961 0 0 0-1.418 1.467 3.828 3.828 0 0 0-.499 1.878c0 2.113 1.643 3.17 4.928 3.17Zm.195-15.652c1.291 0 2.298-.385 3.021-1.154.724-.77 1.085-1.846 1.085-3.228 0-1.383-.365-2.479-1.095-3.287-.73-.809-1.733-1.213-3.011-1.213-.795 0-1.512.179-2.151.538a3.724 3.724 0 0 0-1.495 1.565c-.359.685-.538 1.483-.538 2.397 0 1.369.381 2.442 1.144 3.218.762.776 1.776 1.164 3.04 1.164Zm16.62-11.152h9.366v18.626h6.413v2.895h-16.268v-2.895h6.433v-15.691h-5.944v-2.935Zm7.586-4.304c-.938 0-1.603-.196-1.994-.587-.391-.391-.587-1.057-.587-1.996 0-.939.196-1.604.587-1.995.391-.392 1.056-.587 1.994-.587.939 0 1.604.195 1.995.587.391.391.586 1.056.586 1.995 0 .939-.195 1.605-.586 1.996-.391.391-1.056.587-1.995.587Zm26.592 26.138c-1.89 0-3.304-.43-4.243-1.291-.938-.861-1.408-2.1-1.408-3.717v-13.891h-5.572v-2.935h5.572v-6.848h3.422v6.848h6.1v2.935h-6.1v12.717c0 .861.104 1.519.313 1.976.208.456.56.776 1.056.959.495.182 1.212.274 2.151.274.417 0 1.016-.069 1.798-.206a50.363 50.363 0 0 0 2.151-.421v2.974c-2.255.418-4.002.626-5.24.626ZM631 242.186h3.421v12.482a8.35 8.35 0 0 1 3.011-2.572 8.214 8.214 0 0 1 3.755-.91c2.489 0 4.288.675 5.396 2.025 1.108 1.35 1.662 3.296 1.662 5.84v14.047h-3.422v-12.56c0-1.357-.104-2.491-.312-3.405-.209-.913-.646-1.656-1.311-2.23-.664-.574-1.648-.861-2.952-.861-1.981 0-3.448.897-4.399 2.69-.952 1.794-1.428 4.145-1.428 7.054v9.312H631v-30.912Zm30.365 31.186c-2.438 0-4.21-.655-5.318-1.966-1.108-1.311-1.662-3.225-1.662-5.742v-14.087h3.421v12.756c0 1.37.095 2.498.284 3.385.189.887.606 1.608 1.251 2.162.645.554 1.607.831 2.884.831 1.33 0 2.425-.355 3.285-1.066.86-.711 1.486-1.63 1.877-2.758.391-1.129.587-2.345.587-3.649v-11.661h3.421v16.865c0 .861.027 1.917.079 3.169 0 .287.013.783.039 1.487h-3.148l-.157-2.856c-.743 1.083-1.701 1.875-2.874 2.377-1.173.502-2.496.753-3.969.753Zm25.555.118c-1.316 0-2.434-.238-3.353-.714-.919-.477-1.743-1.269-2.473-2.378l-.118 2.7h-3.324a87.83 87.83 0 0 0 .118-4.656v-26.256h3.402v13.226c.717-1.265 1.597-2.24 2.639-2.925 1.043-.685 2.223-1.027 3.539-1.027 1.721 0 3.165.499 4.331 1.496 1.167.998 2.037 2.364 2.611 4.099.573 1.735.86 3.718.86 5.948 0 1.826-.316 3.541-.948 5.145-.633 1.605-1.571 2.896-2.816 3.874-1.245.979-2.734 1.468-4.468 1.468Zm-.665-2.583c1.291 0 2.347-.359 3.168-1.076.821-.717 1.418-1.653 1.789-2.807.372-1.155.557-2.417.557-3.786 0-2.674-.404-4.836-1.212-6.486-.808-1.65-2.099-2.475-3.871-2.475-1.89 0-3.301.838-4.234 2.514-.932 1.676-1.398 3.851-1.398 6.525 0 1.291.176 2.511.528 3.659.352 1.147.919 2.09 1.701 2.827.783.737 1.773 1.105 2.972 1.105Zm23.62 2.191c-1.108 0-1.984-.322-2.63-.968-.645-.646-.968-1.523-.968-2.632 0-1.121.323-2.002.968-2.641.646-.639 1.522-.958 2.63-.958 1.121 0 2.001.319 2.64.958.638.639.958 1.52.958 2.641 0 1.109-.32 1.986-.958 2.632-.639.646-1.519.968-2.64.968Zm0-14.321c-1.108 0-1.984-.323-2.63-.969-.645-.645-.968-1.522-.968-2.631 0-1.122.323-2.002.968-2.641.646-.639 1.522-.959 2.63-.959 1.121 0 2.001.32 2.64.959.638.639.958 1.519.958 2.641 0 1.109-.32 1.986-.958 2.631-.639.646-1.519.969-2.64.969Zm47.435 14.713c-1.317 0-2.434-.238-3.353-.714-.919-.477-1.744-1.269-2.474-2.378l-.117 2.7h-3.324a88.98 88.98 0 0 0 .117-4.656v-26.256h3.402v13.226c.717-1.265 1.597-2.24 2.64-2.925 1.043-.685 2.223-1.027 3.539-1.027 1.721 0 3.164.499 4.331 1.496 1.167.998 2.037 2.364 2.61 4.099.574 1.735.861 3.718.861 5.948 0 1.826-.316 3.541-.949 5.145-.632 1.605-1.57 2.896-2.815 3.874-1.245.979-2.734 1.468-4.468 1.468Zm-.665-2.583c1.291 0 2.346-.359 3.168-1.076.821-.717 1.417-1.653 1.789-2.807.371-1.155.557-2.417.557-3.786 0-2.674-.404-4.836-1.212-6.486-.808-1.65-2.099-2.475-3.872-2.475-1.89 0-3.301.838-4.233 2.514-.932 1.676-1.398 3.851-1.398 6.525 0 1.291.176 2.511.528 3.659.352 1.147.919 2.09 1.701 2.827.782.737 1.773 1.105 2.972 1.105Zm22.036 2.465c-2.438 0-4.21-.655-5.318-1.966-1.108-1.311-1.662-3.225-1.662-5.742v-14.087h3.421v12.756c0 1.37.095 2.498.284 3.385.189.887.606 1.608 1.251 2.162.646.554 1.607.831 2.884.831 1.33 0 2.425-.355 3.285-1.066.861-.711 1.486-1.63 1.877-2.758.391-1.129.587-2.345.587-3.649v-11.661h3.422v16.865c0 .861.026 1.917.078 3.169 0 .287.013.783.039 1.487h-3.148l-.157-2.856c-.743 1.083-1.701 1.875-2.874 2.377-1.173.502-2.496.753-3.969.753Zm16.6-16.199c0-.9-.026-1.729-.078-2.485-.052-.757-.143-1.794-.274-3.111h3.187l.391 3.913c.77-1.343 1.747-2.397 2.933-3.16a7.02 7.02 0 0 1 3.872-1.144c2.346 0 4.135.815 5.367 2.445 1.232 1.631 1.848 3.881 1.848 6.75v12.717h-3.422v-11.152c0-1.539-.117-2.863-.352-3.971-.235-1.109-.701-2.009-1.398-2.7-.697-.691-1.691-1.037-2.982-1.037-1.342 0-2.437.44-3.285 1.321-.847.88-1.456 2.008-1.828 3.384a16.734 16.734 0 0 0-.557 4.373v9.782h-3.422v-15.925Zm24.089 6.182-.215-1.017.215-.998v-.959h15.681v.959l.215.998-.215 1.017v.939H819.37v-.939Zm34.354 10.056c-1.89 0-3.304-.43-4.243-1.291-.938-.861-1.408-2.1-1.408-3.717v-13.891h-5.572v-2.935h5.572v-6.848h3.422v6.848h6.101v2.935h-6.101v12.717c0 .861.104 1.519.313 1.976.209.456.561.776 1.056.959.495.182 1.212.274 2.151.274.417 0 1.016-.069 1.799-.206a50.006 50.006 0 0 0 2.15-.421v2.974c-2.255.418-4.001.626-5.24.626Zm20.413-.156c-1.877 0-3.454-.326-4.732-.978-1.277-.652-2.45-1.598-3.519-2.837l2.033-2.152c.743.717 1.398 1.278 1.966 1.682a7.106 7.106 0 0 0 1.916.959c.71.235 1.554.352 2.532.352 1.303 0 2.457-.245 3.461-.734 1.003-.489 1.505-1.327 1.505-2.514 0-.613-.163-1.095-.489-1.448a3.014 3.014 0 0 0-1.251-.792c-.508-.176-1.251-.375-2.229-.597a45.648 45.648 0 0 1-1.858-.45c-1.538-.417-2.789-.838-3.754-1.262a6.145 6.145 0 0 1-2.405-1.858c-.638-.815-.958-1.888-.958-3.219 0-1.382.352-2.54 1.056-3.472.704-.933 1.639-1.624 2.806-2.074 1.167-.45 2.46-.675 3.881-.675 3.011 0 5.371.874 7.078 2.621l-2.033 2.309c-1.46-1.174-3.116-1.761-4.967-1.761-1.342 0-2.437.261-3.285.783-.847.522-1.27 1.239-1.27 2.152 0 .757.303 1.392.909 1.908.606.515 1.336.916 2.19 1.203.853.287 1.913.58 3.177.88 1.16.274 2.134.555 2.923.842.789.286 1.561.831 2.317 1.633.756.802 1.134 1.895 1.134 3.277 0 1.539-.391 2.769-1.173 3.688-.782.92-1.783 1.572-3.001 1.957-1.219.385-2.539.577-3.96.577Zm15.623-9.9-.215-1.017.215-.998v-.959h15.681v.959l.215.998-.215 1.017v.939H889.76v-.939Zm32.477 9.939c-1.982 0-3.738-.43-5.27-1.291-1.531-.861-2.724-2.117-3.578-3.766-.854-1.65-1.28-3.604-1.28-5.86 0-2.244.446-4.2 1.339-5.87.893-1.669 2.131-2.954 3.715-3.854 1.584-.9 3.379-1.35 5.387-1.35 1.486 0 2.825.303 4.018.91 1.192.606 2.121 1.334 2.786 2.181l-2.131 2.192c-.639-.679-1.31-1.22-2.014-1.624-.704-.405-1.577-.607-2.62-.607-1.356 0-2.565.336-3.627 1.008-1.063.672-1.89 1.604-2.483 2.798-.594 1.193-.89 2.559-.89 4.098 0 1.513.28 2.88.841 4.099.56 1.22 1.346 2.179 2.356 2.876 1.01.698 2.173 1.047 3.49 1.047 1.056 0 2.014-.264 2.874-.792a11.914 11.914 0 0 0 2.444-2.025l2.034 2.23a16.871 16.871 0 0 1-1.877 1.761c-.639.509-1.421.942-2.347 1.301-.925.359-1.981.538-3.167.538Zm26.631.274c-2.412 0-4.175-.548-5.289-1.644-1.115-1.095-1.672-2.862-1.672-5.302v-21.638h-6.765v-2.798h10.187v23.849c0 1.566.342 2.704 1.026 3.415.684.71 1.568 1.066 2.649 1.066a3.75 3.75 0 0 0 1.956-.538c.599-.359 1.264-.897 1.994-1.614l1.955 2.25c-1.798 1.969-3.812 2.954-6.041 2.954Zm11.457-21.991h9.366v18.626h6.413v2.895h-16.267v-2.895h6.432v-15.691h-5.944v-2.935Zm7.587-4.304c-.939 0-1.603-.196-1.994-.587-.392-.391-.587-1.057-.587-1.996 0-.939.195-1.604.587-1.995.391-.392 1.055-.587 1.994-.587.938 0 1.603.195 1.994.587.391.391.587 1.056.587 1.995 0 .939-.196 1.605-.587 1.996-.391.391-1.056.587-1.994.587Zm15.701 16.082-.215-1.017.215-.998v-.959h15.681v.959l.215.998-.215 1.017v.939h-15.681v-.939Zm31.307 9.9c-1.88 0-3.46-.326-4.73-.978-1.28-.652-2.46-1.598-3.52-2.837l2.03-2.152c.74.717 1.4 1.278 1.96 1.682a7.19 7.19 0 0 0 1.92.959c.71.235 1.55.352 2.53.352 1.31 0 2.46-.245 3.46-.734 1.01-.489 1.51-1.327 1.51-2.514 0-.613-.16-1.095-.49-1.448a3.024 3.024 0 0 0-1.25-.792c-.51-.176-1.25-.375-2.23-.597-.97-.221-1.59-.371-1.86-.45-1.54-.417-2.79-.838-3.75-1.262a6.124 6.124 0 0 1-2.41-1.858c-.64-.815-.96-1.888-.96-3.219 0-1.382.36-2.54 1.06-3.472.7-.933 1.64-1.624 2.81-2.074 1.16-.45 2.46-.675 3.88-.675 3.01 0 5.37.874 7.08 2.621l-2.04 2.309c-1.46-1.174-3.11-1.761-4.96-1.761-1.35 0-2.44.261-3.29.783-.85.522-1.27 1.239-1.27 2.152 0 .757.3 1.392.91 1.908.61.515 1.33.916 2.19 1.203.85.287 1.91.58 3.18.88 1.16.274 2.13.555 2.92.842.79.286 1.56.831 2.32 1.633.75.802 1.13 1.895 1.13 3.277 0 1.539-.39 2.769-1.17 3.688-.78.92-1.78 1.572-3 1.957s-2.54.577-3.96.577Zm26.51.156c-1.89 0-3.3-.43-4.24-1.291-.94-.861-1.41-2.1-1.41-3.717v-13.891h-5.57v-2.935h5.57v-6.848h3.42v6.848h6.1v2.935h-6.1v12.717c0 .861.11 1.519.31 1.976.21.456.56.776 1.06.959.5.182 1.21.274 2.15.274.42 0 1.02-.069 1.8-.206.78-.137 1.5-.277 2.15-.421v2.974c-2.26.418-4 .626-5.24.626Zm18.2.079c-2.11 0-3.78-.506-5-1.517-1.23-1.01-1.84-2.481-1.84-4.411 0-2.818 1.15-4.745 3.46-5.782s5.05-1.555 8.23-1.555h2.27v-1.057c0-.808-.08-1.571-.25-2.289-.17-.717-.61-1.376-1.31-1.976-.71-.6-1.79-.9-3.25-.9a8.103 8.103 0 0 0-3.84.92c-.49.261-1.07.6-1.73 1.017l-.8.489-1.53-2.387a35.6 35.6 0 0 1 2.29-1.379c.64-.346 1.47-.665 2.49-.959 1.03-.293 2.18-.44 3.45-.44 2.32 0 4.05.466 5.18 1.399 1.14.933 1.84 1.934 2.11 3.003.26 1.07.4 2.146.4 3.228v8.139c0 1.852.12 3.874.35 6.065h-3.13l-.08-1.31-.11-1.624c-.7 1.161-1.72 2.005-3.07 2.533-1.34.529-2.77.793-4.29.793Zm.79-2.583c2.21 0 3.82-.721 4.83-2.162 1-1.441 1.5-3.381 1.5-5.82l-1.68-.079c-2.14 0-3.86.154-5.15.46-1.3.307-2.25.786-2.85 1.438-.6.652-.9 1.5-.9 2.544 0 1.239.37 2.152 1.12 2.739.74.587 1.78.88 3.13.88Zm20.04-9.039c0-2.256-.04-3.838-.1-4.744-.07-.907-.18-1.777-.33-2.612h-3.76v-2.935h6.38l.31 3.874c.6-1.435 1.45-2.504 2.55-3.209 1.1-.704 2.25-1.056 3.43-1.056.93 0 1.9.202 2.93.606 1.02.405 1.83.894 2.43 1.468l-1.8 2.387c-.36-.392-.91-.757-1.65-1.096-.74-.339-1.55-.509-2.45-.509-1.11 0-2 .346-2.66 1.037-.67.691-1.15 1.751-1.46 3.179-.31 1.429-.46 3.284-.46 5.567v9.273h-3.36v-11.23Zm31.36 11.543c-1.89 0-3.3-.43-4.24-1.291-.94-.861-1.41-2.1-1.41-3.717v-13.891h-5.57v-2.935h5.57v-6.848h3.42v6.848h6.1v2.935h-6.1v12.717c0 .861.1 1.519.31 1.976.21.456.56.776 1.06.959.49.182 1.21.274 2.15.274.42 0 1.02-.069 1.8-.206.78-.137 1.5-.277 2.15-.421v2.974c-2.25.418-4 .626-5.24.626Zm21.12 0c-1.89 0-3.57-.456-5.03-1.369-1.46-.913-2.59-2.198-3.39-3.854-.8-1.657-1.2-3.555-1.2-5.694 0-2.178.4-4.125 1.22-5.84.81-1.715 1.93-3.055 3.35-4.02a8.23 8.23 0 0 1 4.73-1.448c1.67 0 3.14.46 4.4 1.379 1.27.92 2.25 2.286 2.96 4.099.7 1.813 1.05 4.017 1.05 6.613h-14.27c0 2.308.52 4.053 1.57 5.233 1.05 1.181 2.57 1.771 4.57 1.771 1.3 0 2.51-.215 3.62-.646 1.1-.43 1.97-.893 2.6-1.389l1.64 2.583c-.5.43-1.16.844-2 1.242-.83.398-1.76.721-2.78.969-1.03.248-2.04.371-3.04.371Zm4.96-13.108c0-1.187-.23-2.237-.69-3.15-.46-.913-1.1-1.621-1.92-2.123-.81-.502-1.73-.753-2.74-.753a5.64 5.64 0 0 0-2.86.753 5.486 5.486 0 0 0-2.08 2.133c-.52.919-.77 1.966-.77 3.14h11.06Zm12.95 1.565c0-2.256-.04-3.838-.1-4.744-.07-.907-.18-1.777-.33-2.612h-3.76v-2.935h6.38l.31 3.874c.6-1.435 1.45-2.504 2.55-3.209 1.1-.704 2.25-1.056 3.43-1.056.93 0 1.9.202 2.93.606 1.02.405 1.83.894 2.43 1.468l-1.8 2.387c-.36-.392-.91-.757-1.65-1.096-.74-.339-1.56-.509-2.45-.509-1.11 0-2 .346-2.66 1.037-.67.691-1.15 1.751-1.46 3.179-.31 1.429-.46 3.284-.46 5.567v9.273h-3.36v-11.23Zm53.71-19.447v2.739c1.41.195 2.61.613 3.62 1.252 1.01.639 1.79 1.444 2.33 2.416s.84 2.045.89 3.219h-3.4c-.09-2.205-1.38-3.522-3.85-3.952v9.704c1.59.443 2.95 1.069 4.08 1.878 1.14.809 2 1.741 2.6 2.798.59 1.056.88 2.171.88 3.345 0 1.187-.29 2.315-.88 3.385-.6 1.07-1.44 1.973-2.53 2.71-1.09.737-2.33 1.216-3.74 1.438v2.758h-3.85v-2.797c-2.25-.353-4-1.184-5.27-2.495-1.27-1.311-1.91-3.029-1.91-5.155h3.44c0 1.2.4 2.233 1.19 3.101.8.867 1.81 1.451 3.03 1.751v-10.174c-1.73-.574-3.12-1.21-4.16-1.907-1.04-.698-1.8-1.5-2.28-2.407-.47-.906-.71-1.979-.71-3.218 0-2.048.58-3.744 1.76-5.087 1.17-1.344 2.81-2.185 4.91-2.524v-2.778h3.85Zm-7.08 9.723c0 1.996 1.24 3.548 3.71 4.657v-8.765c-1.31.235-2.26.734-2.84 1.497a4.2 4.2 0 0 0-.87 2.611Zm6.67 18.45c.86-.156 1.62-.469 2.27-.939.66-.47 1.17-1.04 1.52-1.712.35-.672.53-1.379.53-2.123 0-2.1-1.44-3.619-4.32-4.558v9.332Z"/><path fill="#29c840" d="M367.773 162.985c0 9.938-8.059 17.996-18 17.996s-18-8.058-18-17.996c0-9.938 8.059-17.995 18-17.995s18 8.057 18 17.995Z"/><path fill="#29c840" d="M367.773 162.985c0 9.938-8.059 17.996-18 17.996s-18-8.058-18-17.996c0-9.938 8.059-17.995 18-17.995s18 8.057 18 17.995Z"/><path fill="#febc2e" d="M317.714 162.985c0 9.938-8.059 17.996-18 17.996s-18-8.058-18-17.996c0-9.938 8.059-17.995 18-17.995s18 8.057 18 17.995Z"/><path fill="#febc2e" d="M317.714 162.985c0 9.938-8.059 17.996-18 17.996s-18-8.058-18-17.996c0-9.938 8.059-17.995 18-17.995s18 8.057 18 17.995Z"/><path fill="#fe5f57" d="M267.714 162.985c0 9.938-8.059 17.996-18 17.996s-18-8.058-18-17.996c0-9.938 8.059-17.995 18-17.995s18 8.057 18 17.995Z"/><path fill="#fe5f57" d="M267.714 162.985c0 9.938-8.059 17.996-18 17.996s-18-8.058-18-17.996c0-9.938 8.059-17.995 18-17.995s18 8.057 18 17.995Z"/></svg>